<svg xmlns="http://www.w3.org/2000/svg"  viewBox="0 0 24 24" width="48px" height="48px" baseProfile="basic"><linearGradient id="lVJ7DHCpKcO-pPjs2O0wPa" x1="4.808" x2="18.939" y1="5.056" y2="19.187" gradientUnits="userSpaceOnUse"><stop offset="0" stop-color="#fff" stop-opacity=".6"/><stop offset="1" stop-color="#fff" stop-opacity=".3"/></linearGradient><path fill="url(#lVJ7DHCpKcO-pPjs2O0wPa)" d="M21.805,10.042L21.795,10H21h-7c-1.105,0-2,0.895-2,2c0,1.105,0.895,2,2,2h3.651 c-0.399,1.127-1.129,2.095-2.067,2.799C14.584,17.549,13.347,18,12,18c-2.607,0-4.819-1.666-5.647-3.989 C6.128,13.382,6,12.707,6,12c0-0.815,0.164-1.591,0.458-2.3C7.361,7.528,9.501,6,12,6c1,0,1.941,0.247,2.769,0.681 c0.79,0.414,1.75,0.301,2.381-0.33c0.945-0.945,0.72-2.545-0.459-3.176C15.292,2.426,13.697,2,12,2 C8.163,2,4.834,4.164,3.157,7.337C2.421,8.73,2,10.315,2,12c0,1.642,0.403,3.187,1.104,4.554C4.762,19.784,8.119,22,12,22 c2.579,0,4.922-0.984,6.695-2.587C20.72,17.583,22,14.944,22,12C22,11.329,21.931,10.675,21.805,10.042z"/><linearGradient id="lVJ7DHCpKcO-pPjs2O0wPb" x1="4.808" x2="18.939" y1="5.056" y2="19.187" gradientUnits="userSpaceOnUse"><stop offset="0" stop-color="#fff" stop-opacity=".6"/><stop offset=".493" stop-color="#fff" stop-opacity="0"/><stop offset=".997" stop-color="#fff" stop-opacity=".3"/></linearGradient><path fill="url(#lVJ7DHCpKcO-pPjs2O0wPb)" d="M12,2.5c1.551,0,3.092,0.386,4.454,1.115 c0.417,0.223,0.696,0.622,0.766,1.093c0.071,0.478-0.084,0.948-0.425,1.288c-0.276,0.276-0.647,0.428-1.045,0.428 c-0.257,0-0.516-0.065-0.75-0.187C14.08,5.755,13.043,5.5,12,5.5c-2.635,0-4.991,1.573-6.003,4.009C5.667,10.302,5.5,11.14,5.5,12 c0,0.735,0.128,1.468,0.382,2.179C6.803,16.763,9.262,18.5,12,18.5c1.407,0,2.75-0.45,3.884-1.301 c1.038-0.779,1.812-1.828,2.238-3.032l0.236-0.667h-0.707H14c-0.827,0-1.5-0.673-1.5-1.5s0.673-1.5,1.5-1.5h7h0.38 c0.08,0.501,0.12,1.004,0.12,1.5c0,2.671-1.145,5.238-3.14,7.042C16.606,20.627,14.347,21.5,12,21.5 c-3.575,0-6.813-1.983-8.451-5.175C2.853,14.968,2.5,13.513,2.5,12c0-1.559,0.37-3.049,1.099-4.43C5.252,4.443,8.471,2.5,12,2.5 M12,2C8.163,2,4.834,4.164,3.157,7.337C2.421,8.73,2,10.315,2,12c0,1.642,0.403,3.187,1.104,4.554C4.762,19.784,8.119,22,12,22 c2.579,0,4.922-0.984,6.695-2.587C20.72,17.583,22,14.944,22,12c0-0.671-0.069-1.325-0.195-1.958L21.795,10H21h-7 c-1.105,0-2,0.895-2,2c0,1.105,0.895,2,2,2h3.651c-0.399,1.127-1.129,2.095-2.067,2.799C14.584,17.549,13.347,18,12,18 c-2.607,0-4.819-1.666-5.647-3.989C6.128,13.382,6,12.707,6,12c0-0.815,0.164-1.591,0.458-2.3C7.361,7.528,9.501,6,12,6 c1,0,1.941,0.247,2.769,0.681c0.311,0.163,0.649,0.244,0.982,0.244c0.513,0,1.016-0.192,1.399-0.575 c0.945-0.945,0.72-2.545-0.459-3.176C15.292,2.426,13.697,2,12,2L12,2z"/><linearGradient id="lVJ7DHCpKcO-pPjs2O0wPc" x1="1.074" x2="6.009" y1="9.42" y2="14.355" gradientUnits="userSpaceOnUse"><stop offset="0" stop-color="#fff" stop-opacity=".7"/><stop offset=".519" stop-color="#fff" stop-opacity=".45"/><stop offset="1" stop-color="#fff" stop-opacity=".55"/></linearGradient><path fill="url(#lVJ7DHCpKcO-pPjs2O0wPc)" d="M6,12c0-0.815,0.164-1.591,0.458-2.3	L3.157,7.337C2.421,8.73,2,10.315,2,12c0,1.642,0.403,3.187,1.104,4.554l3.248-2.542C6.128,13.382,6,12.707,6,12z"/><linearGradient id="lVJ7DHCpKcO-pPjs2O0wPd" x1="14.231" x2="21.708" y1="8.941" y2="16.418" gradientUnits="userSpaceOnUse"><stop offset="0" stop-color="#fff" stop-opacity=".7"/><stop offset=".519" stop-color="#fff" stop-opacity=".45"/><stop offset="1" stop-color="#fff" stop-opacity=".55"/></linearGradient><path fill="url(#lVJ7DHCpKcO-pPjs2O0wPd)" d="M22,12c0-0.671-0.069-1.325-0.195-1.958	L21.795,10H21h-7c-1.105,0-2,0.895-2,2v0c0,1.105,0.895,2,2,2h3.651c-0.399,1.127-1.129,2.095-2.067,2.799l3.111,2.614	C20.72,17.583,22,14.944,22,12z"/></svg>